<?xml version="1.0" standalone="no"?>
<!DOCTYPE svg PUBLIC "-//W3C//DTD SVG 20010904//EN"
 "http://www.w3.org/TR/2001/REC-SVG-20010904/DTD/svg10.dtd">
<svg version="1.0" xmlns="http://www.w3.org/2000/svg"
 width="181.000000pt" height="105.000000pt" viewBox="0 0 181.000000 105.000000"
 preserveAspectRatio="xMidYMid meet">

<g transform="translate(0.000000,105.000000) scale(0.100000,-0.100000)"
fill="#000000" stroke="none">
<path d="M800 664 l0 -107 52 5 c67 7 88 31 88 102 -1 73 -33 106 -104 106
l-36 0 0 -106z m94 74 c10 -13 16 -43 16 -73 0 -60 -21 -95 -56 -95 -24 0 -24
1 -24 95 0 94 0 95 24 95 14 0 32 -10 40 -22z"/>
<path d="M1320 755 c0 -8 7 -15 15 -15 8 0 15 7 15 15 0 8 -7 15 -15 15 -8 0
-15 -7 -15 -15z"/>
<path d="M470 706 c-60 -50 -67 -61 -95 -137 l-30 -82 -80 -42 -80 -42 35 -14
c29 -12 39 -13 60 -2 32 16 68 16 100 0 18 -10 32 -11 48 -4 27 13 28 21 0 65
l-21 35 24 69 c16 48 33 76 54 92 68 53 87 74 83 92 -6 33 -31 25 -98 -30z"/>
<path d="M997 703 c-13 -12 -7 -43 9 -43 8 0 12 5 9 10 -4 6 -1 17 5 25 10 12
10 15 -2 15 -8 0 -18 -3 -21 -7z"/>
<path d="M1058 698 c15 -15 16 -48 1 -48 -8 0 -8 -4 1 -15 6 -8 9 -19 6 -24
-10 -15 16 -51 36 -51 10 0 18 5 18 10 0 6 -4 10 -10 10 -5 0 -10 22 -10 49 0
49 -17 81 -43 81 -8 0 -7 -4 1 -12z"/>
<path d="M1146 693 c4 -10 10 -44 12 -75 2 -32 7 -58 12 -58 14 0 17 123 3
138 -18 19 -37 15 -27 -5z"/>
<path d="M1220 697 c22 -11 25 -20 28 -75 2 -42 7 -62 16 -62 9 0 11 16 8 63
-5 71 -14 87 -51 87 l-26 0 25 -13z"/>
<path d="M1322 639 c2 -48 7 -74 16 -77 10 -3 12 13 10 69 -2 48 -7 74 -16 77
-10 3 -12 -13 -10 -69z"/>
<path d="M992 621 c-8 -4 -12 -19 -10 -32 2 -18 10 -25 31 -27 15 -2 27 1 27
7 0 6 -7 11 -16 11 -12 0 -15 7 -12 25 6 27 1 30 -20 16z"/>
<path d="M487 558 c-9 -7 -21 -25 -26 -40 -21 -56 62 -106 101 -60 29 32 30
57 4 85 -27 29 -53 34 -79 15z"/>
<path d="M798 453 c-7 -18 4 -203 13 -203 5 0 9 23 9 50 0 49 1 50 30 50 17 0
30 5 30 10 0 6 -14 10 -31 10 -29 0 -30 2 -27 37 l3 38 44 -3 c29 -3 41 0 37
7 -8 12 -103 15 -108 4z"/>
<path d="M962 394 c-17 -12 -22 -25 -22 -58 0 -23 6 -50 13 -59 18 -23 59 -30
81 -14 18 13 17 14 -11 10 -23 -4 -34 0 -45 16 -29 41 -1 122 36 108 23 -9 20
-42 -6 -60 -23 -16 -23 -16 6 -8 42 10 55 35 32 60 -23 25 -53 27 -84 5z"/>
<path d="M1087 403 c-4 -3 -3 -11 3 -17 5 -7 10 -37 12 -69 4 -78 22 -77 26 1
3 71 -16 111 -41 85z"/>
<path d="M1163 385 c13 -27 22 -31 32 -15 8 13 -13 40 -30 40 -10 0 -11 -5 -2
-25z"/>
<path d="M1220 402 c0 -5 3 -12 7 -16 4 -4 6 -31 5 -60 -1 -38 3 -57 13 -66
13 -11 15 -6 15 31 0 24 4 58 9 76 7 25 6 31 -4 27 -7 -3 -16 -1 -20 5 -7 13
-25 15 -25 3z"/>
<path d="M1290 400 c0 -5 5 -10 10 -10 6 0 10 -7 10 -15 0 -8 5 -15 10 -15 16
0 11 37 -6 44 -21 8 -24 8 -24 -4z"/>
<path d="M1380 390 c-31 -31 -27 -93 6 -119 32 -26 46 -26 71 -3 10 9 14 14 9
10 -15 -12 -52 -9 -64 5 -13 16 -18 66 -8 95 5 16 14 22 29 20 31 -4 34 -38 6
-60 l-24 -19 25 7 c34 9 50 23 50 45 0 39 -67 52 -100 19z"/>
<path d="M1514 394 c3 -9 6 -42 6 -75 0 -46 3 -59 15 -59 12 0 15 14 15 63 0
59 -11 87 -33 87 -5 0 -6 -7 -3 -16z"/>
<path d="M1586 388 c9 -31 12 -34 26 -20 8 8 8 15 -2 27 -19 22 -32 18 -24 -7z"/>
<path d="M16 363 c-9 -10 51 -33 85 -33 15 0 31 5 35 11 4 7 20 8 43 4 20 -3
53 -6 74 -6 20 1 55 1 77 1 22 0 57 0 78 -1 20 0 53 3 73 6 23 4 39 3 43 -4
14 -21 126 -2 126 22 0 5 -8 6 -17 2 -70 -29 -72 -29 -109 -12 -33 16 -39 16
-66 2 -38 -19 -58 -19 -93 -1 -20 10 -35 12 -58 4 -18 -5 -40 -12 -50 -15 -10
-3 -33 2 -51 12 -31 17 -35 17 -66 1 -41 -20 -53 -20 -89 -1 -16 8 -31 11 -35
8z"/>
<path d="M10 290 c0 -5 6 -10 13 -10 8 0 28 -7 46 -16 29 -14 34 -14 56 0 30
20 64 20 90 2 23 -15 67 -14 73 2 5 16 57 15 85 0 28 -15 60 -21 53 -9 -6 10
26 21 61 21 12 0 35 -8 51 -17 28 -16 31 -16 55 0 15 9 33 17 42 17 8 0 15 5
15 10 0 14 -16 12 -51 -5 -27 -14 -33 -14 -61 0 -39 19 -57 19 -96 -1 -29 -14
-35 -14 -64 0 -39 20 -57 20 -96 0 -29 -14 -35 -14 -64 0 -40 20 -59 20 -96
-1 -28 -16 -31 -16 -55 0 -29 19 -57 22 -57 7z"/>
</g>
</svg>
